<?xml version="1.0" standalone="no"?>
<!DOCTYPE svg PUBLIC "-//W3C//DTD SVG 20010904//EN"
 "http://www.w3.org/TR/2001/REC-SVG-20010904/DTD/svg10.dtd">
<svg version="1.0" xmlns="http://www.w3.org/2000/svg"
 width="512.000000pt" height="512.000000pt" viewBox="0 0 512.000000 512.000000"
 preserveAspectRatio="xMidYMid meet">

<g transform="translate(0.000000,512.000000) scale(0.100000,-0.100000)"
fill="#000000" stroke="none">
<path d="M315 4022 c-108 -37 -217 -128 -264 -220 -52 -102 -51 -74 -51 -1242
0 -949 2 -1093 16 -1145 32 -124 122 -233 243 -293 l75 -37 1630 -3 c1470 -2
1636 -1 1686 14 141 40 251 148 299 292 18 53 21 86 21 243 0 165 2 181 17
175 9 -4 169 -95 355 -202 186 -108 359 -202 385 -210 140 -42 294 27 363 162
l25 49 0 955 0 955 -23 47 c-29 60 -90 121 -148 149 -59 28 -154 35 -216 16
-26 -8 -200 -103 -386 -211 -186 -107 -346 -198 -355 -202 -15 -6 -17 10 -17
174 0 151 -3 190 -20 244 -40 130 -157 248 -287 288 -64 20 -90 20 -1682 20
-1507 -1 -1619 -2 -1666 -18z m3310 -196 c58 -27 99 -65 129 -121 l21 -40 0
-1105 0 -1105 -22 -41 c-28 -53 -89 -107 -144 -128 -41 -15 -171 -16 -1639
-14 l-1595 3 -41 22 c-22 12 -57 40 -77 62 -70 78 -67 25 -67 1201 0 1176 -3
1123 67 1201 36 40 75 65 123 80 14 4 738 8 1610 8 l1585 1 50 -24z m1258
-303 c48 -43 47 -26 47 -963 0 -744 -2 -886 -14 -915 -20 -46 -70 -78 -114
-71 -19 3 -151 73 -295 157 -144 84 -324 188 -400 232 l-137 80 2 519 3 519
345 201 c465 270 468 271 509 264 18 -3 43 -13 54 -23z"/>
<path d="M1955 3043 c-11 -3 -30 -14 -42 -26 -22 -20 -23 -27 -23 -189 l0
-168 -169 0 -169 0 -27 -32 c-23 -27 -26 -39 -22 -77 4 -33 12 -52 32 -68 25
-22 34 -23 191 -23 l164 0 0 -168 c0 -162 1 -169 23 -189 30 -28 72 -36 114
-22 54 17 63 51 63 229 l0 150 155 0 c91 0 164 4 178 11 52 24 65 122 22 164
-24 25 -27 25 -190 25 l-165 0 0 149 c0 173 -8 207 -56 227 -34 14 -44 15 -79
7z"/>
</g>
</svg>
