<?xml version="1.0" standalone="no"?>
<!DOCTYPE svg PUBLIC "-//W3C//DTD SVG 20010904//EN"
 "http://www.w3.org/TR/2001/REC-SVG-20010904/DTD/svg10.dtd">
<svg version="1.0" xmlns="http://www.w3.org/2000/svg"
 width="24.000000pt" height="24.000000pt" viewBox="0 0 24.000000 24.000000"
 preserveAspectRatio="xMidYMid meet">

<g transform="translate(0.000000,24.000000) scale(0.100000,-0.100000)"
fill="#000000" stroke="none">
<path d="M94 207 c-3 -8 -4 -34 -2 -58 3 -39 6 -44 28 -44 24 0 25 3 25 55 0
49 -2 55 -23 58 -12 2 -24 -3 -28 -11z"/>
<path d="M50 116 c0 -8 14 -26 30 -39 17 -14 30 -30 30 -36 0 -6 5 -11 10 -11
6 0 10 5 10 11 0 6 14 22 30 36 17 13 30 31 30 39 0 21 -18 17 -25 -5 -12 -39
-78 -39 -90 0 -7 22 -25 26 -25 5z"/>
</g>
</svg>
