<?xml version="1.0" encoding="UTF-8"?>
<!DOCTYPE svg PUBLIC "-//W3C//DTD SVG 1.1//EN" "http://www.w3.org/Graphics/SVG/1.1/DTD/svg11.dtd">
<svg xmlns="http://www.w3.org/2000/svg" version="1.1" width="48px" height="48px" style="shape-rendering:geometricPrecision; text-rendering:geometricPrecision; image-rendering:optimizeQuality; fill-rule:evenodd; clip-rule:evenodd" xmlns:xlink="http://www.w3.org/1999/xlink">
<g><path style="opacity:0.846" fill="#7e7777" d="M 8.5,8.5 C 11.5,8.5 14.5,8.5 17.5,8.5C 17.5,11.5 17.5,14.5 17.5,17.5C 14.5,17.5 11.5,17.5 8.5,17.5C 8.5,14.5 8.5,11.5 8.5,8.5 Z"/></g>
<g><path style="opacity:0.893" fill="#7e7676" d="M 19.5,8.5 C 22.1667,8.5 24.8333,8.5 27.5,8.5C 27.5,11.5 27.5,14.5 27.5,17.5C 24.8333,17.5 22.1667,17.5 19.5,17.5C 19.5,14.5 19.5,11.5 19.5,8.5 Z"/></g>
<g><path style="opacity:0.848" fill="#7e7777" d="M 29.5,8.5 C 32.5,8.5 35.5,8.5 38.5,8.5C 38.5,11.5 38.5,14.5 38.5,17.5C 35.5,17.5 32.5,17.5 29.5,17.5C 29.5,14.5 29.5,11.5 29.5,8.5 Z"/></g>
<g><path style="opacity:0.917" fill="#7e7676" d="M 8.5,19.5 C 11.5,19.5 14.5,19.5 17.5,19.5C 17.5,22.1667 17.5,24.8333 17.5,27.5C 14.5,27.5 11.5,27.5 8.5,27.5C 8.5,24.8333 8.5,22.1667 8.5,19.5 Z"/></g>
<g><path style="opacity:1" fill="#7e7676" d="M 19.5,19.5 C 22.1667,19.5 24.8333,19.5 27.5,19.5C 27.5,22.1667 27.5,24.8333 27.5,27.5C 24.8333,27.5 22.1667,27.5 19.5,27.5C 19.5,24.8333 19.5,22.1667 19.5,19.5 Z"/></g>
<g><path style="opacity:0.917" fill="#7e7676" d="M 29.5,19.5 C 32.5,19.5 35.5,19.5 38.5,19.5C 38.5,22.1667 38.5,24.8333 38.5,27.5C 35.5,27.5 32.5,27.5 29.5,27.5C 29.5,24.8333 29.5,22.1667 29.5,19.5 Z"/></g>
<g><path style="opacity:0.846" fill="#7e7777" d="M 8.5,29.5 C 11.5,29.5 14.5,29.5 17.5,29.5C 17.5,32.5 17.5,35.5 17.5,38.5C 14.5,38.5 11.5,38.5 8.5,38.5C 8.5,35.5 8.5,32.5 8.5,29.5 Z"/></g>
<g><path style="opacity:0.893" fill="#7e7676" d="M 19.5,29.5 C 22.1667,29.5 24.8333,29.5 27.5,29.5C 27.5,32.5 27.5,35.5 27.5,38.5C 24.8333,38.5 22.1667,38.5 19.5,38.5C 19.5,35.5 19.5,32.5 19.5,29.5 Z"/></g>
<g><path style="opacity:0.843" fill="#7e7777" d="M 29.5,29.5 C 32.5,29.5 35.5,29.5 38.5,29.5C 38.5,32.5 38.5,35.5 38.5,38.5C 35.5,38.5 32.5,38.5 29.5,38.5C 29.5,35.5 29.5,32.5 29.5,29.5 Z"/></g>
</svg>
